<?xml version="1.0" encoding="UTF-8"?>
<svg version="1.1" xmlns="http://www.w3.org/2000/svg" width="1024" height="1024">
<path d="M0 0 C337.92 0 675.84 0 1024 0 C1024 337.92 1024 675.84 1024 1024 C686.08 1024 348.16 1024 0 1024 C0 686.08 0 348.16 0 0 Z " fill="#211436" transform="translate(0,0)"/>
<path d="M0 0 C2.27100635 0.00313942 4.5406791 -0.02029686 6.81152344 -0.0456543 C16.92657331 -0.08942724 26.31214089 1.09675714 36.17089844 3.31567383 C37.42580078 3.58190552 37.42580078 3.58190552 38.70605469 3.85351562 C56.35234386 7.76320961 72.64733565 16.07575247 88.76098633 24.01538086 C108.66516495 33.7806234 128.46486758 39.33894326 150.05224609 44.03320312 C162.88485874 46.84574507 175.63933162 49.99852009 187.35839844 56.12817383 C188.35081543 56.63900513 188.35081543 56.63900513 189.36328125 57.16015625 C200.61987524 63.06973221 210.17332808 70.39626479 219.17089844 79.31567383 C220.110625 80.24250977 221.05035156 81.1693457 222.01855469 82.12426758 C238.71591132 99.16018274 247.67724054 121.16920266 254.86425781 143.52001953 C260.87169831 161.9446718 270.00130229 176.09059092 283.17089844 190.31567383 C285.55827934 192.93911037 287.87967096 195.60785954 290.17089844 198.31567383 C291.00492188 199.28633789 291.83894531 200.25700195 292.69824219 201.25708008 C309.85668058 221.76544119 318.61598694 245.77602101 318.48339844 272.50317383 C318.47848389 273.68500244 318.47356934 274.86683105 318.46850586 276.08447266 C318.2665458 291.25011968 315.2804623 305.07117017 310.17089844 319.31567383 C309.78675781 320.39461914 309.40261719 321.47356445 309.00683594 322.58520508 C305.84838386 330.59759731 301.62312896 337.80006379 297.23339844 345.19067383 C291.80654476 354.33839561 286.83754893 363.32137529 283.17089844 373.31567383 C282.91937012 373.99742676 282.6678418 374.67917969 282.40869141 375.3815918 C278.77345692 385.48814074 276.34681746 395.74481888 274.17089844 406.25317383 C268.1122282 435.4841506 259.05632142 459.50118399 238.17089844 481.31567383 C237.48769531 482.06204102 236.80449219 482.8084082 236.10058594 483.57739258 C219.13898319 501.5091239 197.43295225 509.7066163 174.1605835 516.07644653 C156.08980631 521.02820577 141.08584122 528.00353955 125.24462891 538.01245117 C98.38236999 554.89386607 70.66449848 561.42178359 39.34667969 554.58520508 C31.13530332 552.64595863 23.14581507 550.05258518 15.17089844 547.31567383 C-0.51601416 541.94364621 -15.09814847 538.39213024 -31.70410156 538.10473633 C-32.51832077 538.09035522 -33.33253998 538.07597412 -34.1714325 538.06115723 C-37.56686893 538.00410523 -40.96217115 537.94971307 -44.35791016 537.91430664 C-59.40975297 537.74475782 -74.57028747 536.7463136 -88.89160156 531.69067383 C-89.98311523 531.31434814 -89.98311523 531.31434814 -91.09667969 530.93041992 C-103.45503071 526.47300434 -115.12358325 520.23062132 -124.82910156 511.31567383 C-125.64507812 510.5912207 -126.46105469 509.86676758 -127.30175781 509.12036133 C-139.18904152 497.98636762 -145.99333925 484.32533931 -153.07348633 469.88549805 C-159.89317642 456.00396288 -167.43097572 441.54773504 -178.59472656 430.60473633 C-180.82910156 428.31567383 -180.82910156 428.31567383 -180.82910156 426.31567383 C-181.4259375 426.04883789 -182.02277344 425.78200195 -182.63769531 425.50708008 C-184.87484481 424.29080451 -186.17330223 423.11210124 -187.89160156 421.25317383 C-190.75241248 418.30125428 -193.74506672 415.69727013 -196.95410156 413.12817383 C-203.00836219 408.24651038 -208.70876471 403.04925023 -214.35253906 397.7043457 C-215.64247027 396.49119611 -216.95290804 395.29992567 -218.26660156 394.11254883 C-235.68370761 377.81511388 -248.90730945 351.48573839 -249.9519043 327.49536133 C-250.45402382 307.44720906 -248.11846323 290.27788532 -241.82910156 271.31567383 C-240.75565367 268.04830803 -239.69661311 264.7765312 -238.64160156 261.50317383 C-238.39176514 260.75124756 -238.14192871 259.99932129 -237.88452148 259.22460938 C-234.53596563 248.85120602 -233.54874893 238.99062103 -233.70410156 228.11645508 C-233.7116748 226.88259567 -233.71924805 225.64873627 -233.72705078 224.37748718 C-233.75940807 219.15106224 -233.81556564 213.92496343 -233.87011719 208.69873047 C-234.22605846 171.32255477 -228.55737654 138.76999487 -201.56738281 110.98754883 C-186.6430872 96.87730571 -168.26546991 88.65231309 -149.53222656 80.82177734 C-127.19159665 71.47349895 -110.13875363 56.97037994 -93.34472656 39.75317383 C-89.75120009 36.14446345 -85.88414511 33.01431682 -81.82910156 29.94067383 C-80.7193396 29.09931885 -80.7193396 29.09931885 -79.5871582 28.2409668 C-62.930814 15.80342316 -45.01006208 7.32444801 -24.82910156 2.31567383 C-23.77505127 2.03421509 -23.77505127 2.03421509 -22.69970703 1.74707031 C-15.19695994 -0.03616141 -7.66548946 -0.02206484 0 0 Z " fill="#EB4340" transform="translate(477.8291015625,190.684326171875)"/>
<path d="M0 0 C0.59683594 0.47872559 1.19367188 0.95745117 1.80859375 1.45068359 C29.25828293 23.71365825 46.22432713 53.93999559 50.6875 89.20703125 C53.49640939 123.30016892 44.8719193 159.76010459 22.48193359 186.31884766 C-1.22765101 213.21575039 -31.83418563 231.20747676 -68 235 C-104.46706658 236.72066306 -140.2299073 227.55246306 -167.94140625 202.8125 C-185.05969602 187.16890039 -197.94561237 169.85763186 -206 148 C-206.53560547 146.55753906 -206.53560547 146.55753906 -207.08203125 145.0859375 C-217.63396573 115.12950927 -216.77772583 80.48053151 -203.17822266 51.54980469 C-186.53417203 18.16326647 -159.12116455 -7.96933479 -124 -21 C-81.89778307 -34.96135691 -34.89557743 -28.07562768 0 0 Z " fill="#09B8CE" transform="translate(593,360)"/>
<path d="M0 0 C2.27100635 0.00313942 4.5406791 -0.02029686 6.81152344 -0.0456543 C16.92657331 -0.08942724 26.31214089 1.09675714 36.17089844 3.31567383 C37.42580078 3.58190552 37.42580078 3.58190552 38.70605469 3.85351562 C56.35234386 7.76320961 72.64733565 16.07575247 88.76098633 24.01538086 C108.66516495 33.7806234 128.46486758 39.33894326 150.05224609 44.03320312 C162.88485874 46.84574507 175.63933162 49.99852009 187.35839844 56.12817383 C188.35081543 56.63900513 188.35081543 56.63900513 189.36328125 57.16015625 C200.61987524 63.06973221 210.17332808 70.39626479 219.17089844 79.31567383 C220.110625 80.24250977 221.05035156 81.1693457 222.01855469 82.12426758 C238.71591132 99.16018274 247.67724054 121.16920266 254.86425781 143.52001953 C260.87169831 161.9446718 270.00130229 176.09059092 283.17089844 190.31567383 C285.55827934 192.93911037 287.87967096 195.60785954 290.17089844 198.31567383 C291.00492188 199.28633789 291.83894531 200.25700195 292.69824219 201.25708008 C309.85668058 221.76544119 318.61598694 245.77602101 318.48339844 272.50317383 C318.47848389 273.68500244 318.47356934 274.86683105 318.46850586 276.08447266 C318.2665458 291.25011968 315.2804623 305.07117017 310.17089844 319.31567383 C309.78675781 320.39461914 309.40261719 321.47356445 309.00683594 322.58520508 C305.84838386 330.59759731 301.62312896 337.80006379 297.23339844 345.19067383 C291.80654476 354.33839561 286.83754893 363.32137529 283.17089844 373.31567383 C282.91937012 373.99742676 282.6678418 374.67917969 282.40869141 375.3815918 C278.77345692 385.48814074 276.34681746 395.74481888 274.17089844 406.25317383 C268.1122282 435.4841506 259.05632142 459.50118399 238.17089844 481.31567383 C237.48769531 482.06204102 236.80449219 482.8084082 236.10058594 483.57739258 C219.13898319 501.5091239 197.43295225 509.7066163 174.1605835 516.07644653 C156.08980631 521.02820577 141.08584122 528.00353955 125.24462891 538.01245117 C98.38236999 554.89386607 70.66449848 561.42178359 39.34667969 554.58520508 C31.13530332 552.64595863 23.14581507 550.05258518 15.17089844 547.31567383 C-0.51601416 541.94364621 -15.09814847 538.39213024 -31.70410156 538.10473633 C-32.51832077 538.09035522 -33.33253998 538.07597412 -34.1714325 538.06115723 C-37.56686893 538.00410523 -40.96217115 537.94971307 -44.35791016 537.91430664 C-59.40975297 537.74475782 -74.57028747 536.7463136 -88.89160156 531.69067383 C-89.98311523 531.31434814 -89.98311523 531.31434814 -91.09667969 530.93041992 C-103.45503071 526.47300434 -115.12358325 520.23062132 -124.82910156 511.31567383 C-125.64507812 510.5912207 -126.46105469 509.86676758 -127.30175781 509.12036133 C-139.18904152 497.98636762 -145.99333925 484.32533931 -153.07348633 469.88549805 C-159.89317642 456.00396288 -167.43097572 441.54773504 -178.59472656 430.60473633 C-180.82910156 428.31567383 -180.82910156 428.31567383 -180.82910156 426.31567383 C-181.4259375 426.04883789 -182.02277344 425.78200195 -182.63769531 425.50708008 C-184.87484481 424.29080451 -186.17330223 423.11210124 -187.89160156 421.25317383 C-190.75241248 418.30125428 -193.74506672 415.69727013 -196.95410156 413.12817383 C-203.00836219 408.24651038 -208.70876471 403.04925023 -214.35253906 397.7043457 C-215.64247027 396.49119611 -216.95290804 395.29992567 -218.26660156 394.11254883 C-235.68370761 377.81511388 -248.90730945 351.48573839 -249.9519043 327.49536133 C-250.45402382 307.44720906 -248.11846323 290.27788532 -241.82910156 271.31567383 C-240.75565367 268.04830803 -239.69661311 264.7765312 -238.64160156 261.50317383 C-238.39176514 260.75124756 -238.14192871 259.99932129 -237.88452148 259.22460938 C-234.53596563 248.85120602 -233.54874893 238.99062103 -233.70410156 228.11645508 C-233.7116748 226.88259567 -233.71924805 225.64873627 -233.72705078 224.37748718 C-233.75940807 219.15106224 -233.81556564 213.92496343 -233.87011719 208.69873047 C-234.22605846 171.32255477 -228.55737654 138.76999487 -201.56738281 110.98754883 C-186.6430872 96.87730571 -168.26546991 88.65231309 -149.53222656 80.82177734 C-127.19159665 71.47349895 -110.13875363 56.97037994 -93.34472656 39.75317383 C-89.75120009 36.14446345 -85.88414511 33.01431682 -81.82910156 29.94067383 C-80.7193396 29.09931885 -80.7193396 29.09931885 -79.5871582 28.2409668 C-62.930814 15.80342316 -45.01006208 7.32444801 -24.82910156 2.31567383 C-23.77505127 2.03421509 -23.77505127 2.03421509 -22.69970703 1.74707031 C-15.19695994 -0.03616141 -7.66548946 -0.02206484 0 0 Z M-36.82910156 36.31567383 C-37.95574219 36.8184082 -39.08238281 37.32114258 -40.24316406 37.83911133 C-53.37008747 44.03874478 -64.25444814 52.43107715 -74.82910156 62.31567383 C-76.09496139 63.42553881 -77.36563621 64.5299417 -78.64160156 65.62817383 C-81.59105404 68.18239967 -84.42984468 70.83340662 -87.25683594 73.5222168 C-105.26916202 90.52847807 -125.7851428 101.67933619 -148.72607422 110.62866211 C-171.66718814 119.60511122 -189.43708688 133.63975889 -199.99707031 156.20629883 C-205.30130232 169.65364757 -207.13892798 182.47620945 -206.98925781 196.85473633 C-206.98296637 198.22992525 -206.97773334 199.60511938 -206.97349548 200.98031616 C-206.96031493 204.57056299 -206.93594478 208.16063329 -206.90814209 211.75079346 C-206.86470716 217.50135426 -206.83509639 223.25196079 -206.81210136 229.00263596 C-206.8020089 230.99272451 -206.78464966 232.98277203 -206.7671051 234.97280884 C-206.6700292 253.1831106 -211.80322056 268.55554181 -217.65527344 285.63354492 C-221.28432743 296.32508303 -223.17578327 305.3696935 -223.14160156 316.69067383 C-223.15771484 317.7502832 -223.17382812 318.80989258 -223.19042969 319.90161133 C-223.20349439 341.22320108 -212.08687762 360.95931101 -197.31884766 375.8371582 C-191.25266721 381.72780191 -184.88387932 387.1807427 -178.22753906 392.39379883 C-173.92139068 395.84432815 -169.86322776 399.5535112 -165.82910156 403.31567383 C-164.70181641 404.36174805 -164.70181641 404.36174805 -163.55175781 405.42895508 C-149.06854884 419.35218058 -139.62920938 436.37983428 -130.86035156 454.22583008 C-125.71321854 464.65657314 -120.76517275 474.67848357 -112.82910156 483.31567383 C-112.08144531 484.15485352 -111.33378906 484.9940332 -110.56347656 485.85864258 C-95.82698914 501.56963965 -74.0080527 509.57699879 -52.62872314 510.40042114 C-50.25895461 510.42703228 -47.89041123 510.42805586 -45.52050781 510.42114258 C-25.1451807 510.51454825 -6.35446266 510.93469227 13.17089844 517.31567383 C14.32106445 517.68354004 15.47123047 518.05140625 16.65625 518.43041992 C21.55686888 519.99999695 26.45295709 521.58256877 31.34179688 523.18847656 C54.21586455 530.65418427 75.27237035 532.51734809 97.35839844 521.50317383 C105.33247693 517.38164354 113.10717653 512.90367904 120.68261719 508.08911133 C135.09933694 499.00930449 150.12525168 494.58086663 166.52880859 490.29394531 C185.04888076 485.39009208 200.85361231 478.21233001 215.17089844 465.31567383 C215.95078125 464.61829102 216.73066406 463.9209082 217.53417969 463.20239258 C235.88349982 445.86719722 243.36133458 423.58309885 247.83496094 399.44287109 C251.97933876 377.32398128 258.79009215 356.76190322 270.17089844 337.31567383 C270.92886719 336.02040771 270.92886719 336.02040771 271.70214844 334.69897461 C272.22808594 333.80033691 272.75402344 332.90169922 273.29589844 331.97583008 C278.95513228 322.27873116 284.08627505 313.18054162 287.17089844 302.31567383 C287.42476318 301.56608398 287.67862793 300.81649414 287.94018555 300.04418945 C290.34048795 292.44169184 290.66466969 285.10444763 290.61694336 277.21069336 C290.6084632 275.08193048 290.63724637 272.95589039 290.66894531 270.82739258 C290.81072546 243.69051615 276.85468397 224.46257396 258.94873047 205.49511719 C241.51724479 186.90690453 232.49208412 166.09609568 224.81616211 142.03125 C220.64305256 128.96779046 215.33114302 116.68945508 206.17089844 106.31567383 C205.50574219 105.5087207 204.84058594 104.70176758 204.15527344 103.87036133 C183.35833802 79.40777902 152.86085844 72.73337842 122.97387695 66.01391602 C103.38315142 61.58557356 86.34125167 54.82933848 68.17089844 46.31567383 C58.03435084 41.57268034 47.80372751 37.30303617 37.29589844 33.44067383 C35.76267944 32.86808838 35.76267944 32.86808838 34.19848633 32.28393555 C10.62840482 23.81174035 -14.16133794 26.09519602 -36.82910156 36.31567383 Z " fill="#FC7630" transform="translate(477.8291015625,190.684326171875)"/>
<path d="M0 0 C0.59683594 0.47872559 1.19367188 0.95745117 1.80859375 1.45068359 C29.25828293 23.71365825 46.22432713 53.93999559 50.6875 89.20703125 C53.49640939 123.30016892 44.8719193 159.76010459 22.48193359 186.31884766 C-1.22765101 213.21575039 -31.83418563 231.20747676 -68 235 C-104.46706658 236.72066306 -140.2299073 227.55246306 -167.94140625 202.8125 C-185.05969602 187.16890039 -197.94561237 169.85763186 -206 148 C-206.53560547 146.55753906 -206.53560547 146.55753906 -207.08203125 145.0859375 C-217.63396573 115.12950927 -216.77772583 80.48053151 -203.17822266 51.54980469 C-186.53417203 18.16326647 -159.12116455 -7.96933479 -124 -21 C-81.89778307 -34.96135691 -34.89557743 -28.07562768 0 0 Z M-158 28 C-158.63808594 28.58523438 -159.27617187 29.17046875 -159.93359375 29.7734375 C-164.73843733 34.33215324 -168.40845453 39.45234494 -172 45 C-172.5775 45.87140625 -173.155 46.7428125 -173.75 47.640625 C-188.36413818 70.99714941 -192.95534642 99.53527139 -186.84106445 126.34082031 C-179.7777844 154.37817634 -161.99653959 179.08161623 -137.375 194.296875 C-133.97541117 196.31787579 -130.51031973 198.17829379 -127 200 C-126.07703125 200.48210937 -125.1540625 200.96421875 -124.203125 201.4609375 C-101.59869713 212.49564341 -71.81298661 213.88962794 -48 206 C-47.34547852 205.78569336 -46.69095703 205.57138672 -46.01660156 205.35058594 C-31.9780772 200.58788656 -20.05082834 192.78241565 -9 183 C-8.30390625 182.38769531 -7.6078125 181.77539062 -6.890625 181.14453125 C11.21651235 164.16003642 22.64232741 138.40597111 24.20507812 113.76660156 C24.30251897 110.42477846 24.32926739 107.09317786 24.3125 103.75 C24.30404053 101.97338989 24.30404053 101.97338989 24.29541016 100.16088867 C23.88334416 70.32282266 11.66493378 46.18495482 -9.28515625 25.34814453 C-29.03643191 6.38271224 -56.12057663 -3.44520454 -83.25 -3.3125 C-85.03398193 -3.30512817 -85.03398193 -3.30512817 -86.85400391 -3.29760742 C-114.78433039 -2.92573704 -137.94814895 9.08315939 -158 28 Z " fill="#016D96" transform="translate(593,360)"/>
<path d="M0 0 C12.75838131 9.99244215 19.84163065 21.70301356 24.55859375 37.00390625 C24.86410156 37.96876953 24.86410156 37.96876953 25.17578125 38.953125 C28.09737094 54.60449835 24.2354375 71.83996009 15.55859375 85.00390625 C5.8421088 98.2688515 -8.14663715 107.16758946 -24.44140625 110.00390625 C-44.30747172 111.48082355 -60.33816973 108.22177705 -76.12890625 95.44140625 C-87.28344966 85.01697841 -94.96492454 69.52269461 -95.8125 54.27734375 C-96.23818066 37.23460664 -92.37604264 23.24672927 -80.93359375 10.12890625 C-59.55160245 -12.28868007 -26.28056882 -18.08009415 0 0 Z " fill="#07B6CC" transform="translate(258.44140625,625.99609375)"/>
<path d="M0 0 C31.32812394 20.33778751 45.40761277 60.85391265 57.58789062 94.03295898 C64.46755785 112.70865939 74.25276971 126.30261489 89.9375 138.5 C90.54480957 138.97228027 91.15211914 139.44456055 91.77783203 139.93115234 C92.3757959 140.39602051 92.97375977 140.86088867 93.58984375 141.33984375 C110.70174903 154.66488203 110.70174903 154.66488203 112.46875 164.6484375 C112.65323765 169.76796971 111.96625064 173.70405079 109 178 C103.30111995 183.14289175 99.36908506 183.47948261 91.79296875 183.39453125 C80.49090615 182.21893051 71.45523457 174.03102787 63 167 C62.03835938 166.21625 61.07671875 165.4325 60.0859375 164.625 C52.67177631 158.27597182 47.27076458 151.13063373 42 143 C41.37351562 142.04480469 40.74703125 141.08960938 40.1015625 140.10546875 C32.355911 127.57573838 27.4733867 113.70827899 23 99.75 C16.79334324 80.60603249 5.98058237 58.67135431 -12.765625 48.98828125 C-14.84941981 47.95082796 -16.94232812 46.93518344 -19.04101562 45.92822266 C-27.87430723 41.6804854 -35.86829425 37.32035948 -40 28 C-41.93774726 21.8470233 -42.10895992 14.6126611 -39.4375 8.6875 C-36.27216629 3.24847588 -31.13523772 -1.29255711 -25.20703125 -3.52734375 C-16.38807425 -5.41600534 -7.66346185 -4.85304295 0 0 Z " fill="#8842A6" transform="translate(723,177)"/>
<path d="M0 0 C4.41785757 2.51211509 7.29232241 4.93688981 9.5 9.5625 C11.33297774 18.22748567 9.72877336 23.4907684 6.09985352 31.3293457 C3.82423621 36.26559781 1.88227309 41.21055372 0.1875 46.375 C-0.17553223 47.47992798 -0.17553223 47.47992798 -0.54589844 48.60717773 C-1.91939036 52.86346858 -3.20955182 57.13989526 -4.4609375 61.43359375 C-13.45286319 92.18125513 -27.13658974 116.68954576 -51.515625 137.80859375 C-72.78098012 156.36153113 -85.7992616 175.41254376 -93.18969727 202.90576172 C-95.20008826 210.01537231 -97.55785115 213.6427341 -103.8125 217.8125 C-109.03572537 218.51767642 -113.49167457 218.46090521 -118.25 216.125 C-122.41284213 212.36828881 -125.42074358 209.18720173 -126.0859375 203.45703125 C-127.02051298 177.39675336 -109.52237433 150.95252188 -92.61547852 132.68115234 C-86.09279788 125.83259468 -78.77882481 119.86984689 -71.46484375 113.89453125 C-47.5668008 93.89239192 -35.20641579 61.66880943 -32.125 31.4375 C-32.04217773 30.42252441 -31.95935547 29.40754883 -31.87402344 28.36181641 C-30.9975889 18.45351064 -28.3528779 9.66243366 -20.8125 2.8125 C-14.51039189 -2.40570745 -7.59598841 -2.3659636 0 0 Z " fill="#01A1BD" transform="translate(840.8125,552.1875)"/>
<path d="M0 0 C2.49643608 2.49643608 2.96538805 4.50442824 4 7.875 C4.33 8.92429687 4.66 9.97359375 5 11.0546875 C7.64207255 20.81204454 8.3187527 30.42772915 8.25 40.5 C8.25773438 41.63308594 8.26546875 42.76617187 8.2734375 43.93359375 C8.20403868 74.22617812 -4.99081598 99.91935288 -26.078125 121.0859375 C-49.20124324 142.75315571 -77.83651008 147.94393524 -108.45166016 147.18359375 C-115.38603016 146.82480427 -121.46941479 145.35101068 -128 143 C-129.11632812 142.62617187 -130.23265625 142.25234375 -131.3828125 141.8671875 C-148.1947283 135.86577075 -161.99267487 126.05476849 -175 114 C-173.515 113.505 -173.515 113.505 -172 113 C-169.42578125 114.44140625 -169.42578125 114.44140625 -166.3125 116.5625 C-142.33106673 131.98468704 -111.87169294 134.09048447 -84.51953125 128.2578125 C-55.99485102 120.97354388 -32.36977162 100.96750419 -17.24072266 76.12744141 C-7.75858787 59.86862155 -1.25031388 41.7962068 -0.68359375 22.8515625 C-0.6524221 21.86547501 -0.6524221 21.86547501 -0.62062073 20.85946655 C-0.55579247 18.78140638 -0.49655436 16.70323144 -0.4375 14.625 C-0.39425112 13.20701989 -0.35063491 11.78905093 -0.30664062 10.37109375 C-0.20018082 6.9141812 -0.09873016 3.45714294 0 0 Z " fill="#009AB9" transform="translate(609,423)"/>
<path d="M0 0 C4.78166403 4.14809355 7.53598071 9.48671111 8.35546875 15.69140625 C8.9555732 28.13140926 3.14511455 38.44531021 -4.515625 47.86328125 C-12.9758322 57.1243333 -24.43556514 62.0408547 -36.765625 63.27734375 C-41.92084259 63.47027854 -45.67258296 63.048862 -50 60 C-55.91595054 54.24048085 -58.28786301 49.30836919 -58.4375 40.9375 C-58.38576627 28.09969764 -52.34210481 18.42070756 -44 9 C-32.45477566 -2.03974167 -14.70967319 -9.57908153 0 0 Z " fill="#42D7E3" transform="translate(494,393)"/>
<path d="M0 0 C4.15505857 2.90194567 6.09343256 6.52855915 7.72265625 11.203125 C8.98169019 19.59226691 7.01474655 26.96022263 2.72265625 34.203125 C-1.46464642 39.04891479 -6.08429698 42.82129612 -12.59375 43.4140625 C-17.9055894 43.61988638 -21.79432826 43.33081023 -26.27734375 40.203125 C-31.97436076 34.37361922 -34.41228064 29.28354729 -34.71484375 21.265625 C-34.51921476 14.15184341 -32.49779886 9.77417829 -27.90234375 4.453125 C-19.40047268 -2.83419306 -10.25343562 -5.78921614 0 0 Z " fill="#C33238" transform="translate(648.27734375,598.796875)"/>
<path d="M0 0 C7.93414943 3.00499971 12.43659686 6.63432218 16.171875 14.23828125 C18.14947074 20.66546741 17.76943861 27.23888022 15.23046875 33.41015625 C13.11908727 37.05637962 9.92072723 39.36385514 6.171875 41.23828125 C-2.41773021 42.10093887 -8.87637543 41.54318029 -15.828125 36.23828125 C-21.48921148 31.3320063 -25.22156436 26.18290215 -26.13671875 18.72265625 C-26.43434924 12.40928228 -25.65638619 8.80659981 -21.62890625 3.89453125 C-15.28634356 -1.93897543 -8.12831253 -2.18925545 0 0 Z " fill="#C43339" transform="translate(639.828125,305.76171875)"/>
<path d="M0 0 C5.10731104 3.68201494 10.00593914 8.7835659 11.05859375 15.19921875 C11.2415973 21.88423088 9.93989207 26.69184847 5.6875 31.9375 C1.10272827 36.19696642 -3.79928457 37.76530965 -9.99609375 38.05859375 C-15.54623735 37.76845134 -18.46709541 34.96798055 -22.0625 31.0625 C-26.99617319 25.39544296 -27.83755084 20.25464041 -27.68359375 12.8828125 C-27.12488284 8.44841225 -25.65411916 5.86345434 -22.3125 2.9375 C-15.69027485 -2.0816073 -7.77463514 -2.49375089 0 0 Z " fill="#C33238" transform="translate(719.3125,452.0625)"/>
<path d="M0 0 C5.94708594 3.36627506 11.22683334 7.12725492 13.3125 13.875 C14.53356298 25.82615389 14.53356298 25.82615389 11.5625 30.5 C7.53708273 34.74905156 4.67827416 36.62597114 -1.25 37.25 C-7.49329626 37.14651995 -13.11636336 34.2955044 -17.62109375 30.0546875 C-21.95308435 25.08900043 -22.93246694 21.72122227 -23.0625 15.125 C-23.09988281 14.42117188 -23.13726562 13.71734375 -23.17578125 12.9921875 C-23.24137542 9.07111355 -22.88986409 6.60711018 -20.4140625 3.484375 C-14.35583801 -2.31346735 -7.86560238 -2.3996753 0 0 Z " fill="#C33338" transform="translate(383.6875,574.125)"/>
<path d="M0 0 C4.62260493 2.90256588 6.35914876 5.81836449 8 11 C8.89671829 17.94956673 7.04906902 22.34025159 3 28 C-0.61715289 31.71491378 -4.89420174 34.0685368 -10 35 C-14.76899029 34.97290346 -19.12135473 34.46033857 -22.96484375 31.47265625 C-27.35676947 26.56529671 -29.53219067 21.82462477 -29.3046875 15.11328125 C-28.44494271 9.15017958 -25.64719947 5.19668799 -20.9375 1.5625 C-14.41008767 -3.03550446 -7.22036748 -3.20905221 0 0 Z " fill="#C43238" transform="translate(324,519)"/>
<path d="M0 0 C5.21489565 2.59250543 8.41087831 6.32738624 11.375 11.3125 C12.63560191 16.7330882 11.8320067 21.42513017 9.25 26.3125 C6.20330859 29.95160362 3.53384348 32.48871884 -1 34 C-6.8636172 34.47754426 -12.17989266 34.86215611 -17.5625 32.3125 C-22.56847472 27.56324194 -24.66051006 24.53069542 -25.3125 17.75 C-24.77976236 11.35714837 -22.34323397 6.79558549 -17.5625 2.5 C-12.26738712 -1.15283163 -6.17966789 -1.02071339 0 0 Z " fill="#C33238" transform="translate(338,354)"/>
<path d="M0 0 C3.83121344 3.40552306 5.78023661 5.50334381 6.23828125 10.70703125 C6.388599 16.99664241 6.4806707 21.16559214 2 26 C-3.72837762 31.34843421 -7.24786293 32.34485069 -15.01171875 32.2890625 C-18.9416375 31.9089135 -21.0831885 30.61765134 -24 28 C-24.5775 27.54625 -25.155 27.0925 -25.75 26.625 C-29.63419266 21.57554955 -29.67990727 15.08960422 -29 9 C-27.5 5.375 -27.5 5.375 -26 3 C-25.34 3 -24.68 3 -24 3 C-24 2.34 -24 1.68 -24 1 C-16.68828501 -4.07757986 -7.59926094 -5.0086038 0 0 Z " fill="#C33238" transform="translate(553,646)"/>
<path d="M0 0 C4.63545893 2.30277637 7.29458948 5.54556062 8.94140625 10.33984375 C9.7735531 14.69789116 9.31254473 18.15742412 7.25390625 22.08984375 C5.0185429 25.23143549 3.118579 27.19525214 -0.05859375 29.33984375 C-0.65671875 29.75234375 -1.25484375 30.16484375 -1.87109375 30.58984375 C-6.07768083 32.03210218 -10.43771438 31.9881955 -14.55859375 30.33984375 C-15.05359375 30.00984375 -15.54859375 29.67984375 -16.05859375 29.33984375 C-16.05859375 28.67984375 -16.05859375 28.01984375 -16.05859375 27.33984375 C-16.95578125 27.03046875 -16.95578125 27.03046875 -17.87109375 26.71484375 C-21.02059045 24.73516011 -21.77380761 22.80876633 -23.05859375 19.33984375 C-23.82358407 13.41116873 -22.9846259 9.99213994 -19.53125 5.10546875 C-14.29914751 -1.16750294 -7.65323378 -2.45426283 0 0 Z " fill="#C33338" transform="translate(402.05859375,315.66015625)"/>
<path d="M0 0 C3.9655082 2.08799582 6.47391909 4.07786562 8.02734375 8.28125 C8.73649542 14.24411683 8.55294773 19.2278843 5.02734375 24.28125 C2.16912843 27.56819762 0.67661218 29.02453568 -3.6328125 29.6953125 C-8.7129618 29.84573415 -13.10702748 29.91259823 -16.97265625 26.28125 C-20.40318695 21.45996361 -21.72821176 18.32569406 -20.97265625 12.28125 C-19.27217593 7.09031008 -17.13598704 3.82008118 -12.97265625 0.28125 C-8.60262175 -1.17542817 -4.35995829 -1.58857886 0 0 Z " fill="#C23238" transform="translate(686.97265625,535.71875)"/>
<path d="M0 0 C1.010625 -0.00773437 2.02125 -0.01546875 3.0625 -0.0234375 C6.44631728 0.43553772 8.28309027 1.3267961 11 3.375 C13.69870435 6.93203152 14.89411534 10.60733624 15.5 15 C14.71976926 20.26655748 12.32755916 23.17695881 8.4375 26.6875 C4.1963217 29.62370036 0.03093505 29.9274164 -5 29.375 C-8.6891038 27.69813464 -11.33723849 25.41815601 -14 22.375 C-15.87664991 16.74505027 -15.93749151 11.28470492 -13.3125 5.9375 C-9.29849704 1.48955077 -5.99000408 -0.04584187 0 0 Z " fill="#C33238" transform="translate(332,438.625)"/>
<path d="M0 0 C3.7068126 3.29965699 5.04752722 5.98773329 5.625 10.9375 C5.49428146 15.93281565 3.32138627 19.41121045 0.1875 23.1875 C-3.37160964 26.35115301 -6.88877225 26.82675218 -11.52734375 26.671875 C-15.63653808 25.80086629 -18.16759687 23.3358364 -20.8125 20.1875 C-23.25430781 16.15320884 -23.39291518 11.80361446 -22.8125 7.1875 C-21.09961789 2.49961213 -18.97453443 -0.07164806 -14.8125 -2.8125 C-9.49923168 -5.11491627 -4.28883446 -3.53828843 0 0 Z " fill="#C33238" transform="translate(468.8125,628.8125)"/>
<path d="M0 0 C3.82221252 2.06606082 5.93404034 4.11462102 7.3125 8.25 C8.07657553 14.49358858 7.70868332 18.85243129 3.796875 23.875 C-0.36644908 27.73155284 -4.6118345 27.68188923 -10.05859375 27.55859375 C-13.75397282 27.12481225 -15.33300952 26.11953528 -17.6875 23.25 C-20.05669733 18.83839118 -21.43315143 15.25651678 -20.6875 10.25 C-16.06300099 1.68611295 -9.74750489 -2.72023392 0 0 Z " fill="#C33238" transform="translate(474.6875,254.75)"/>
<path d="M0 0 C3.29993578 2.74994648 5.81872945 5.47426063 6.6015625 9.83203125 C6.79789424 14.49937219 5.97009236 17.97620096 3.25 21.875 C-1.07518976 24.82399302 -4.56962079 25.5225474 -9.75 24.875 C-14.52655522 22.43989342 -17.31489342 19.65155522 -19.75 14.875 C-20.48394327 10.38979114 -19.98170881 7.76585494 -17.5 4.0625 C-12.86771775 -1.69236876 -6.87606749 -2.8129367 0 0 Z " fill="#C43238" transform="translate(685.75,388.125)"/>
<path d="M0 0 C3.4480321 1.23608698 5.41819999 2.36001999 7.875 5.0625 C9.54133177 9.41347741 9.65785114 13.40260355 9 18 C7.45957177 21.08085647 6.31068454 22.38588317 3.19921875 23.84375 C-0.71081388 25.11925579 -2.72516606 25.08245018 -6.75 23.875 C-10.95950464 21.44643963 -13.44671791 19.65984626 -15 15 C-15.53832527 9.29375217 -14.61757835 6.4444534 -11 2 C-7.2727104 -0.48485973 -4.31580629 -0.52312804 0 0 Z " fill="#C43338" transform="translate(547,276)"/>
<path d="M0 0 C3.12603632 1.24280551 3.79695509 2.17558345 6 5 C6.90352195 10.03855932 6.7148712 14.57754198 4 19 C1.11915561 21.30467552 -0.75957911 21.96940098 -4.4375 22.4375 C-8.66003788 21.91894272 -10.7240245 20.66649168 -14 18 C-16.45917586 14.3112362 -16.81591937 11.2815571 -16 7 C-12.1134048 0.26708787 -7.34666958 -1.03370225 0 0 Z " fill="#006B95" transform="translate(254,673)"/>
<path d="M0 0 C4.06321581 1.56277531 7.01688254 3.03376507 9 7 C9.58933019 10.47049999 9.58629468 12.81821387 8.00390625 16.0078125 C5.87965402 18.98056208 4.14697009 20.67521074 0.5859375 21.68359375 C-3.11476568 21.95751287 -5.81298393 21.76241151 -8.9765625 19.73046875 C-12.0512446 16.61935677 -13.41357878 13.74116231 -13.75 9.375 C-13.47741658 5.66659769 -12.97438109 4.96938227 -10.4375 1.9375 C-6.44775605 -0.31126477 -4.50807671 -0.64401096 0 0 Z " fill="#006B95" transform="translate(217,693)"/>
<path d="M0 0 C3.3801738 2.34542672 4.6195776 3.99299954 6.0625 7.8125 C5.97766319 12.13917718 4.59911864 15.53450847 2 19 C-1.74559544 21.38145883 -5.66621787 21.86847618 -10 21 C-12.69105198 18.82425584 -14.45532928 17.08934144 -16 14 C-16.5811138 6.91041162 -16.5811138 6.91041162 -14.125 3.0625 C-10.0160272 -0.92562066 -5.49177766 -0.75986861 0 0 Z " fill="#006B95" transform="translate(204,655)"/>
<path d="M0 0 C3.08813077 2.05875385 4.66221204 3.4716479 5.4765625 7.15625 C5.73871258 11.29546175 5.34250479 13.46967 3.0625 17 C-0.94453484 19.61683908 -4.22134852 20.53749331 -9 20 C-12.77082851 17.9799133 -14.33622284 16.85517207 -15.76171875 12.87109375 C-16.36582777 9.59560356 -16.58348332 7.13625699 -15.03515625 4.12109375 C-10.7872462 -1.23721224 -6.3543053 -1.75546956 0 0 Z " fill="#006C96" transform="translate(237,640)"/>
<path d="M0 0 C3.57909747 0.87857121 4.98058413 2.44045084 6.94140625 5.4765625 C7.31696377 8.39435555 6.9796181 10.72902949 5.94140625 13.4765625 C3.35100604 16.43701988 1.8127059 17.33134589 -2.05859375 17.9765625 C-5.75062791 17.36122347 -7.39876243 16.06039864 -10.05859375 13.4765625 C-11.5029023 10.58794541 -11.43547881 8.68008549 -11.05859375 5.4765625 C-7.96681573 1.03213159 -5.26743385 -0.37981496 0 0 Z " fill="#C23238" transform="translate(406.05859375,649.5234375)"/>
<path d="M0 0 C0.56920166 0.03029297 1.13840332 0.06058594 1.72485352 0.09179688 C4.33730641 0.22975519 6.94989796 0.36489689 9.5625 0.5 C10.90538086 0.57154297 10.90538086 0.57154297 12.27539062 0.64453125 C17.19170771 0.89665007 22.0773088 1.0540213 27 1 C27.33 1.99 27.66 2.98 28 4 C18.40432207 4.23889655 9.46850826 3.78831859 0 2 C0 1.34 0 0.68 0 0 Z " fill="#136F9D" transform="translate(487,591)"/>
<path d="M0 0 C2.31 0.33 4.62 0.66 7 1 C4.19456704 3.80543296 0.77745625 5.01207366 -2.8125 6.5625 C-3.52470703 6.87896484 -4.23691406 7.19542969 -4.97070312 7.52148438 C-8.62716311 9.11463207 -12.01991864 10.42918283 -16 11 C-12.79509037 8.40962402 -9.44649547 6.62056844 -5.75 4.8125 C-4.13351562 4.01779297 -4.13351562 4.01779297 -2.484375 3.20703125 C-1.66453125 2.80871094 -0.8446875 2.41039062 0 2 C0 1.34 0 0.68 0 0 Z " fill="#F33E30" transform="translate(464,337)"/>
<path d="M0 0 C1.09404518 3.33644983 0.89669485 5.7065788 0.1875 9.125 C0.01605469 9.99382812 -0.15539062 10.86265625 -0.33203125 11.7578125 C-1 14 -1 14 -3 16 C-3.64767793 18.57061311 -3.64767793 18.57061311 -4 21 C-4.66 20.67 -5.32 20.34 -6 20 C-4.38808348 13.14078075 -2.64031672 6.53792711 0 0 Z " fill="#146E9D" transform="translate(389,413)"/>
<path d="M0 0 C0.33 0.66 0.66 1.32 1 2 C-0.07518118 4.44332726 -1.19808566 6.76754523 -2.4375 9.125 C-2.77587891 9.78371094 -3.11425781 10.44242187 -3.46289062 11.12109375 C-4.30149926 12.75106547 -5.14984811 14.37601909 -6 16 C-6.33 15.01 -6.66 14.02 -7 13 C-7.99 13.495 -7.99 13.495 -9 14 C-8.1875 11.0625 -8.1875 11.0625 -7 8 C-6.01 7.67 -5.02 7.34 -4 7 C-2.77554716 5.37051936 -2.77554716 5.37051936 -1.8125 3.4375 C-1.214375 2.303125 -0.61625 1.16875 0 0 Z " fill="#F23F35" transform="translate(393,403)"/>
<path d="M0 0 C0.66 0.33 1.32 0.66 2 1 C0.2519799 2.6063702 -1.49831644 4.21013297 -3.25 5.8125 C-3.74113281 6.26431641 -4.23226563 6.71613281 -4.73828125 7.18164062 C-7.39507648 9.60818027 -10.07465076 11.90349971 -13 14 C-13.66 13.67 -14.32 13.34 -15 13 C-10.35827355 8.09717644 -5.50719921 3.90510489 0 0 Z " fill="#08C2D6" transform="translate(450,375)"/>
<path d="M0 0 C0.33 0.66 0.66 1.32 1 2 C-0.14453125 4.56640625 -0.14453125 4.56640625 -1.8125 7.5625 C-2.35519531 8.55378906 -2.89789062 9.54507813 -3.45703125 10.56640625 C-5 13 -5 13 -7 14 C-7 12.02 -7 10.04 -7 8 C-5.68 7.67 -4.36 7.34 -3 7 C-3.061875 6.21625 -3.12375 5.4325 -3.1875 4.625 C-3.125625 3.75875 -3.06375 2.8925 -3 2 C-2.01 1.34 -1.02 0.68 0 0 Z " fill="#0770A1" transform="translate(629,521)"/>
<path d="M0 0 C0.33 0 0.66 0 1 0 C0.37679879 6.43974581 -0.64008262 12.67572401 -2 19 C-2.33 19 -2.66 19 -3 19 C-3.33 16.03 -3.66 13.06 -4 10 C-3.34 10 -2.68 10 -2 10 C-1.855625 8.906875 -1.71125 7.81375 -1.5625 6.6875 C-1 3 -1 3 0 0 Z " fill="#F43E33" transform="translate(382,430)"/>
<path d="M0 0 C0.66 0.99 1.32 1.98 2 3 C1.01 4.98 0.02 6.96 -1 9 C-1.99 9 -2.98 9 -4 9 C-4 9.66 -4 10.32 -4 11 C-4.66 10.67 -5.32 10.34 -6 10 C-4.02 6.7 -2.04 3.4 0 0 Z " fill="#0C6F9F" transform="translate(397,399)"/>
<path d="M0 0 C1.74949772 2.62424658 2.65389981 4.55727216 3.625 7.5 C3.88539063 8.2734375 4.14578125 9.046875 4.4140625 9.84375 C5 12 5 12 5 15 C4.34 15 3.68 15 3 15 C1.08697693 11.73386305 0.64325339 9.00554752 0.375 5.25 C0.30023437 4.26515625 0.22546875 3.2803125 0.1484375 2.265625 C0.09945312 1.51796875 0.05046875 0.7703125 0 0 Z " fill="#EC7B2D" transform="translate(788,422)"/>
<path d="M0 0 C0.66 0.33 1.32 0.66 2 1 C-1.3 4.63 -4.6 8.26 -8 12 C-8.66 11.67 -9.32 11.34 -10 11 C-8.52116808 9.35386588 -7.04192523 7.70810092 -5.5625 6.0625 C-4.73878906 5.14597656 -3.91507813 4.22945312 -3.06640625 3.28515625 C-1 1 -1 1 0 0 Z " fill="#01AEC9" transform="translate(753,680)"/>
<path d="M0 0 C1.98 1.65 3.96 3.3 6 5 C5.67 5.66 5.34 6.32 5 7 C2.69 6.34 0.38 5.68 -2 5 C-1.34 3.35 -0.68 1.7 0 0 Z " fill="#0F6E98" transform="translate(602,368)"/>
<path d="M0 0 C0.33 0.66 0.66 1.32 1 2 C-2.88309282 5.64775386 -5.71201818 6.58525633 -11 7 C-8.81482901 4.59424393 -6.74080329 3.20464419 -3.8125 1.8125 C-2.73935547 1.29623047 -2.73935547 1.29623047 -1.64453125 0.76953125 C-1.10183594 0.51558594 -0.55914063 0.26164063 0 0 Z " fill="#F23F34" transform="translate(578,577)"/>
<path d="M0 0 C0.99 0 1.98 0 3 0 C3 0.99 3 1.98 3 3 C2.34 3 1.68 3 1 3 C0.34 5.31 -0.32 7.62 -1 10 C-1.66 10 -2.32 10 -3 10 C-2.01 6.7 -1.02 3.4 0 0 Z " fill="#EA792F" transform="translate(236,462)"/>
<path d="M0 0 C2 2 2 2 2.1953125 3.9453125 C2.13020833 5.96354167 2.06510417 7.98177083 2 10 C1.01 9.67 0.02 9.34 -1 9 C-1.09765625 2.84765625 -1.09765625 2.84765625 -1 1 C-0.67 0.67 -0.34 0.34 0 0 Z " fill="#DD4541" transform="translate(378,447)"/>
<path d="M0 0 C0.66 0.33 1.32 0.66 2 1 C1.2884375 1.928125 1.2884375 1.928125 0.5625 2.875 C-1.02417441 4.90705546 -1.02417441 4.90705546 -2 7 C-3.97888961 7.72693904 -5.97954558 8.39816251 -8 9 C-7.04270084 7.87411986 -6.08412105 6.7493285 -5.125 5.625 C-4.59132813 4.99851562 -4.05765625 4.37203125 -3.5078125 3.7265625 C-2.38567993 2.44163349 -1.20628025 1.20628025 0 0 Z " fill="#0473A7" transform="translate(423,367)"/>
<path d="M0 0 C4.03520597 1.58962659 8.01811282 3.28232318 12 5 C8.6699024 6.11003253 8.02156559 5.9343162 4.875 4.75 C4.17117188 4.49734375 3.46734375 4.2446875 2.7421875 3.984375 C1 3 1 3 0 0 Z " fill="#F6832E" transform="translate(479,730)"/>
<path d="M0 0 C4.43458973 1.3937282 6.87378374 3.60582235 10 7 C9.01 7 8.02 7 7 7 C7 6.34 7 5.68 7 5 C6.21625 4.9175 5.4325 4.835 4.625 4.75 C2 4 2 4 0.6875 1.9375 C0.460625 1.298125 0.23375 0.65875 0 0 Z " fill="#F43D31" transform="translate(432,569)"/>
<path d="M0 0 C0.66 0.33 1.32 0.66 2 1 C0.6875 3.9375 0.6875 3.9375 -1 7 C-1.99 7.33 -2.98 7.66 -4 8 C-4.33 7.01 -4.66 6.02 -5 5 C-3.35 3.35 -1.7 1.7 0 0 Z " fill="#146D99" transform="translate(414,376)"/>
<path d="M0 0 C4.455 1.98 4.455 1.98 9 4 C8.67 4.66 8.34 5.32 8 6 C7.01 6 6.02 6 5 6 C5 5.34 5 4.68 5 4 C4.360625 3.896875 3.72125 3.79375 3.0625 3.6875 C2.381875 3.460625 1.70125 3.23375 1 3 C0.67 2.01 0.34 1.02 0 0 Z " fill="#0F6E9F" transform="translate(566,344)"/>
<path d="M0 0 C0.80050781 0.12761719 1.60101562 0.25523437 2.42578125 0.38671875 C3.23402344 0.50660156 4.04226563 0.62648438 4.875 0.75 C5.48988281 0.85699219 6.10476563 0.96398437 6.73828125 1.07421875 C6.73828125 1.40421875 6.73828125 1.73421875 6.73828125 2.07421875 C0.79828125 2.56921875 0.79828125 2.56921875 -5.26171875 3.07421875 C-2.26171875 0.07421875 -2.26171875 0.07421875 0 0 Z " fill="#DB4643" transform="translate(525.26171875,329.92578125)"/>
<path d="M0 0 C1 2 1 2 0.25 4.5625 C-1 7 -1 7 -4 8 C-3.40072174 4.64404172 -2.15377564 2.62198774 0 0 Z " fill="#250D28" transform="translate(765,714)"/>
<path d="M0 0 C3.91402949 1.26941497 5.79072873 2.51167694 8 6 C5 6 5 6 3.61328125 4.6875 C2.40885417 3.125 1.20442708 1.5625 0 0 Z " fill="#E4742E" transform="translate(288,609)"/>
<path d="M0 0 C-0.33 0.99 -0.66 1.98 -1 3 C-3.31 2.34 -5.62 1.68 -8 1 C-4.93251126 -0.86240388 -3.40254489 -1.2151946 0 0 Z " fill="#136C9A" transform="translate(477,587)"/>
<path d="M0 0 C1.10844919 3.32534757 0.84454356 5.62182575 0 9 C-0.66 9 -1.32 9 -2 9 C-1.125 1.125 -1.125 1.125 0 0 Z " fill="#02A9C6" transform="translate(813,565)"/>
<path d="M0 0 C0.33 0.99 0.66 1.98 1 3 C0.01 3.99 -0.98 4.98 -2 6 C-3.32 5.01 -4.64 4.02 -6 3 C-4.02 2.01 -2.04 1.02 0 0 Z " fill="#106E9C" transform="translate(457,344)"/>
<path d="M0 0 C0.66 0 1.32 0 2 0 C2 0.66 2 1.32 2 2 C2.99 2.33 3.98 2.66 5 3 C4.34 4.32 3.68 5.64 3 7 C0.64046906 4.64046906 0.50858587 3.22104383 0 0 Z " fill="#F14134" transform="translate(635,415)"/>
<path d="M0 0 C3.96 1.98 3.96 1.98 8 4 C8 4.33 8 4.66 8 5 C4.28400809 5.20086443 3.22791555 5.1519437 0 3 C0 2.01 0 1.02 0 0 Z " fill="#176D9B" transform="translate(576,349)"/>
</svg>
